<svg id="SvgjsSvg1001" width="288" height="288" xmlns="http://www.w3.org/2000/svg" version="1.1" xmlns:xlink="http://www.w3.org/1999/xlink" xmlns:svgjs="http://svgjs.com/svgjs"><defs id="SvgjsDefs1002"></defs><g id="SvgjsG1008"><svg xmlns="http://www.w3.org/2000/svg" width="288" height="288" enable-background="new 0 0 864 864" viewBox="0 0 864 864"><path d="M802.9559,467.1089c0.8265-4.344,2.9944-7.7547,6.7037-10.1656c7.2328-4.7013,14.416-9.4826,21.73-14.0548
		c4.7909-2.9947,9.3139-6.1552,11.7757-11.4875c0-3.35,0-6.7003,0-10.0505c-2.358-5.3238-6.9373-7.3004-12.2491-8.5183
		c-23.2448-5.3291-46.4612-10.7834-69.6851-16.2052c-3.4443-0.8042-6.2081-2.5769-8.3226-5.5126
		c-3.4078-4.7309-8.593-7.0323-13.614-9.5284c-7.5459-3.7509-15.0768-7.5319-22.6084-11.3117
		c-0.4533-0.2275-0.8559-0.5559-1.715-1.1228c1.7999-0.7161,3.246-1.4605,4.7806-1.8761
		c27.7328-7.5116,55.474-14.992,83.2191-22.4571c6.4459-1.7343,10.9889-5.4555,12.8878-12.0277
		c0.6414-2.2201,1.2656-4.4459,1.8601-6.679c0.9864-3.7039-0.3651-6.6782-2.9489-9.2542
		c-5.9833-5.9649-12.949-10.5413-20.2833-14.6617c-3.6928-2.0746-7.2456-4.449-10.6517-6.9716
		c-4.953-3.6686-6.3942-9.047-6.2573-14.8794c0.2759-11.753,4.7588-21.7635,13.0809-30.0134
		c4.7797-4.738,10.8515-7.2731,17.0772-9.4697c2.0609-0.7273,4.1295-1.4343,6.1816-2.1863
		c11.6984-4.2874,10.0782-20.009,3.1926-24.6272c-4.4824-3.0064-9.189-5.6938-13.8901-8.3567
		c-19.5515-11.0753-40.1536-19.6262-61.5948-26.3874c-22.6752-7.1506-45.0945-15.1093-67.7091-22.459
		c-12.2245-3.973-24.6693-7.264-36.9329-11.1234c-21.5875-6.7936-43.0706-13.9265-65.0699-19.3296
		c-0.3059-0.0752-0.5887-0.2441-0.8821-0.3695c-9.1486,0-18.297,0-27.4456,0c-3.8162,0.5103-7.6274,1.0623-11.4495,1.5229
		c-13.7987,1.6637-27.6023,3.2883-41.402,4.9437c-13.1608,1.5788-26.3233,3.1455-39.4777,4.7762
		c-12.8339,1.591-25.6636,3.218-38.4859,4.8977c-22.8349,2.9913-45.6713,5.973-68.4915,9.0724
		c-21.992,2.9874-44.0002,5.886-65.9349,9.2569c-19.2545,2.9587-38.4085,6.5668-57.6233,9.7914
		c-10.2114,1.7139-20.4833,3.073-30.6812,4.859c-14.7273,2.5794-29.087,6.5891-43.0165,12.0326
		c-8.1754,3.1947-15.4479,7.8654-19.2087,16.1016c-2.4332,5.3287-3.9821,11.118-5.4372,16.826
		c-3.3703,13.2198-4.8533,26.6911-4.6026,40.3478c0.2679,14.6068,2.134,28.9744,6.2489,43.0194
		c0.3076,1.0496,0.6407,2.0967,0.8632,3.1659c0.6294,3.0238-0.014,3.974-3.0913,4.5002c-3.9947,0.683-8.0002,1.3035-11.9993,1.9613
		c-17.0064,2.7961-34.0123,5.5961-51.0182,8.3946c-2.1577,0.3551-4.3265,0.6529-6.4711,1.0746
		c-5.4555,1.0726-9.2445,4.7263-13.1867,8.303c-13.0425,11.8328-19.6073,26.9566-22.7857,43.8748
		c-0.3772,2.008-0.7787,4.0119-1.169,6.0178c0,9.9214,0,19.8429,0,29.7646c0.7695,4.0232,1.3685,8.088,2.339,12.0623
		c3.6598,14.9869,9.5803,28.9242,19.5429,40.9081c4.9666,5.9744,11.4574,9.9237,18.2517,13.3954
		c15.0679,7.7001,30.1804,15.3126,45.2738,22.963c1.0329,0.5236,2.0791,1.0268,3.0809,1.6054
		c2.087,1.2053,2.1387,1.9468,0.3056,3.6101c-2.6218,2.3791-5.332,4.6682-7.8561,7.1467
		c-10.4568,10.268-18.0785,22.2751-21.5471,36.616c-4.2443,17.5486-4.5034,35.0538,2.9516,51.8524
		c5.646,12.7225,13.5041,24.1367,23.261,34.1381c4.3872,4.497,9.9768,6.9285,15.9108,8.7144
		c31.9612,9.6202,64.3079,17.8001,96.7224,25.699c34.0366,8.2943,68.0732,16.6154,102.2504,24.2986
		c33.1749,7.4579,66.4776,14.3742,99.8197,21.0519c25.4057,5.0882,50.9706,9.3778,76.4451,14.1276
		c13.4622,2.5101,26.8661,5.3353,40.3323,7.8226c4.0295,0.7444,8.1744,1.0302,12.2787,1.1696
		c7.2062,0.2444,14.4217,0.2341,21.6335,0.2692c0.7905,0.0039,1.6622-0.2454,2.3631-0.6242
		c28.9063-15.6258,56.9597-32.7042,84.1785-51.0685c45.4181-30.6431,90.535-61.7339,135.6771-92.7842
		c10.9182-7.5098,21.7341-15.2318,32.0376-23.5497c6.618-5.3429,12.1953-11.9714,18.2725-17.9897
		c3.8625-3.8248,4.616-8.4203,3.6172-13.5372c-1.6567-8.484-6.2169-14.7048-14.1736-18.2781
		c-7.451-3.3464-14.8779-6.7537-22.403-9.9264c-3.7465-1.58-6.1426-3.6816-5.9548-8.1475c0.0872-2.0673-0.7662-4.1596-1.0486-6.2599
		c-0.7258-5.4014,0.4694-10.6255,1.5829-15.855C801.2212,475.6804,802.139,471.404,802.9559,467.1089z M197.2384,191.0337
		c19.1242-3.3559,38.2442-6.7431,57.4015-9.9024c14.7824-2.4378,29.6231-4.5193,44.4265-6.8313
		c11.1843-1.7465,22.3329-3.7284,33.53-5.383c12.0858-1.7859,24.2163-3.266,36.315-4.9675
		c10.9529-1.5401,21.9313-2.9572,32.8222-4.8646c14.5341-2.5456,29.1243-4.3251,43.8542-5.2513
		c8.3346-0.5238,16.6163-1.877,24.926-2.8198c9.9751-1.1316,19.9492-2.2777,29.9341-3.3204
		c13.5734-1.4171,27.149-2.8213,40.7386-4.0717c6.0724-0.5586,12.1891-1.112,18.2703-0.9763
		c7.1815,0.1604,13.9856,2.6438,20.8245,4.6785c34.1313,10.1561,68.2917,20.2169,102.3821,30.5086
		c25.0861,7.5733,49.3046,17.5528,73.6512,27.1588c12.862,5.075,25.7069,10.1938,38.5569,15.2993
		c0.7001,0.2782,1.3758,0.6176,2.564,1.1554c-3.3344,0.7388-6.1334,1.4066-8.952,1.9762
		c-19.0297,3.8461-37.9763,8.2051-57.1226,11.343c-16.812,2.7549-33.082,7.4322-49.5439,11.5093
		c-13.2213,3.2743-26.6887,5.5424-40.0059,8.4448c-27.1289,5.9127-54.2706,11.776-81.3293,17.997
		c-20.4203,4.6949-40.7207,9.9119-61.0732,14.9009c-9.1716,2.2483-18.2583,4.9728-27.5362,6.6224
		c-8.2073,1.4595-16.6178,1.8606-24.959,2.4249c-1.9965,0.1352-4.38-0.4597-6.0643-1.5352
		c-9.0279-5.7638-19.0218-9.346-28.8336-13.3883c-20.5763-8.4776-41.0366-17.2376-61.6328-25.666
		c-29.8205-12.203-59.5489-24.6598-89.6402-36.1615c-22.3199-8.5315-45.158-15.7059-67.751-23.5262
		c-1.4828-0.5133-2.8421-1.3824-4.4762-2.1937C191.1051,191.32,194.3251,191.5448,197.2384,191.0337z M763.5512,278.0206
		c0.204,2.6913,0.4041,5.4073,0.2679,8.0949c-0.4298,8.4798,1.5496,16.6149,3.2766,24.7957
		c1.292,6.1209,1.0246,6.4088-5.1019,8.0106c-26.1252,6.8306-52.4761,12.6845-78.8221,18.5859
		c-22.0721,4.944-43.9831,10.603-66.0021,15.7896c-26.6548,6.2786-53.3724,12.2912-80.0179,18.6082
		c-25.2025,5.9747-50.3444,12.2048-75.5212,18.2887c-2.3083,0.5578-4.6643,0.955-7.0188,1.2763
		c-3.7076,0.5062-6.9701-1.5974-8.3491-5.4406c-2.4415-6.8041-4.2465-13.7617-4.6631-21.0218
		c-0.7224-12.5954-0.0358-25.1006,2.6783-37.4378c0.6308-2.8681,1.7235-5.6563,2.8247-8.3922
		c1.0043-2.4946,3.0721-3.8927,5.6791-4.4831c17.1164-3.8758,34.2117-7.8473,51.354-11.6053
		c32.462-7.1163,64.9633-14.0548,97.426-21.1697c34.4081-7.541,68.7359-15.4605,103.2086-22.6904
		c15.2781-3.2043,30.8213-5.1507,46.2544-7.6032c5.7805-0.9188,11.5896-1.6586,17.3877-2.466
		c0.8823-0.1229,1.7754-0.17,3.0936-0.2917c-1.3604,3.1382-2.3627,6.0072-3.7943,8.6434
		C764.2144,263.9518,763.0027,270.7811,763.5512,278.0206z M133.5355,255.4469c0.4724-12.6127,3.0072-24.9284,8.0139-36.5523
		c4.9702-11.5392,14.4697-17.8099,26.1658-21.3788c5.6024-1.7095,10.7423-1.39,16.3039,0.6658
		c22.1279,8.1801,44.5434,15.5937,66.5875,23.9866c25.177,9.5855,50.1593,19.6997,75.0686,29.9664
		c34.4906,14.2158,68.8356,28.7851,103.2386,43.2134c3.0512,1.2798,6.0439,2.7349,7.8424,5.682
		c0.7263,1.1899,1.0202,2.6435,1.5109,3.9771c-0.1628,0.1839-0.3254,0.3678-0.4883,0.5517
		c-1.4044-0.276-2.8911-0.3433-4.2012-0.8591c-21.9009-8.6226-43.8564-17.1137-65.6447-26.0137
		c-28.2339-11.5326-56.9173-21.8218-85.6444-32.0298c-28.5385-10.1406-56.9198-20.7235-85.3581-31.1448
		c-7.4888-2.7444-14.9161-5.6568-22.4025-8.4076c-12.5708-4.619-23.0688,0.4829-29.1617,10.8998
		c-5.8792,10.0522-7.9154,21.0328-8.5588,32.5c-1.0367,18.4772,3.0352,36.0373,8.7809,53.3658
		c1.6238,4.8974,3.8985,9.2375,8.376,12.0306c64.4233,40.1866,271.1998,86.6746,272.1931,86.8051
		c13.5438,1.7805,26.8138,0.0649,40.0539-2.6901c46.5183-9.6793,92.688-20.8709,138.8992-31.8853
		c52.2156-12.4452,104.4475-24.8219,156.6709-37.2341c4.6901-1.1147,9.3935-2.1844,14.0493-3.4308
		c5.124-1.3719,6.594-3.684,5.9926-8.904c-0.108-0.9389-0.1428-1.8861-0.252-3.3912c5.6774,3.9946,11.6969,6.6315,16.311,11.2696
		c-0.0615,0.2953-0.1229,0.5909-0.1844,0.8865c-0.314,0.0512-0.6284,0.1146-0.9426,0.18l-31.6223,7.9362
		c-0.0331,0.0235-0.0668,0.0436-0.0999,0.0676c-0.6136,0.131-1.223,0.2779-1.8344,0.418l-7.5336,1.8905
		c-6.0018,1.6131-11.9711,3.3615-18.0856,4.6219c-14.8466,3.0601-29.5023,7.0438-44.2429,10.6204
		c-6.1213,1.4852-12.2998,2.7596-18.3668,4.4385c-5.4031,1.4948-10.769,3.1859-16.0284,5.1262v-0.3749
		c-20.0888,6.6136-46.3629,13.162-73.9882,19.1945c-1.2604,0.2449-2.5198,0.4944-3.7832,0.7217
		c-4.0778,0.7332-8.186,1.305-12.2466,2.1187c-0.9927,0.1991-1.9123,0.7329-2.8595,1.1669
		c-68.877,14.2135-139.3234,24.6835-139.3234,24.6835c-8.0261,0.3553-16.0448,0.2672-24.05-1.0895
		c-10.2697-1.7401-20.6809-2.7055-30.8945-4.704c-18.1787-3.5569-35.9979-8.6118-53.6545-14.2003
		c-12.1927-3.8591-24.207-8.3544-36.5388-11.6836c-16.883-4.5575-33.0529-11.022-49.3712-17.1105
		c-23.0237-8.5905-45.7839-17.8271-68.0999-28.1467c-7.5632-3.4977-13.1838-8.794-16.9195-16.2186
		c-4.5847-9.1129-8.7558-18.4062-10.4013-28.5366C135.0366,277.5249,133.1196,266.5492,133.5355,255.4469z M430.4468,361.7808
		c0.3323,5.5258,0.4631,11.0739,1.0714,16.5691c0.3196,2.885,1.5105,5.6681,2.2311,8.5166
		c0.3029,1.1963,0.4075,2.4425,0.6022,3.6661c-1.4071,0.1967-2.8842,0.7721-4.21,0.528
		c-7.6502-1.4093-15.2842-2.9225-22.8876-4.5668c-21.6727-4.6871-43.4142-9.094-64.9716-14.2669
		c-41.7982-10.0294-82.7768-22.8121-122.9742-38.0544c-17.4974-6.6349-34.928-13.4468-52.3951-20.1628
		c-5.4298-2.0876-9.0903-5.8047-10.3916-11.5289c-2.7917-12.2792-5.6142-24.5547-8.1341-36.891
		c-0.9739-4.7676-1.161-9.6959-1.7066-14.5512c0.2704-10.254,3.1289-19.5591,9.1013-27.8837
		c2.0959-2.9215,4.6241-5.219,8.374-5.6318c0.9259-0.1021,1.952-0.06,2.8245,0.2348c8.6429,2.921,17.303,5.7991,25.883,8.8974
		c35.1337,12.6879,70.2197,25.5076,105.3632,38.1673c43.5028,15.6708,86.9866,31.386,129.6681,49.2184
		c5.3223,2.2238,6.0628,3.2026,4.6851,8.7566C429.3854,335.6774,429.6607,348.7055,430.4468,361.7808z M66.0541,337.6008
		c3.8355-0.6725,7.6705-1.3464,11.5062-2.0169c17.4207-3.0464,34.8425-6.0849,52.2611-9.1427
		c3.399-0.5965,6.57-0.2943,9.1893,2.2098c7.8066,7.4643,16.9207,12.9291,26.4602,17.8748
		c18.1368,9.4026,36.6314,17.9688,56.0502,24.36c13.8002,4.5416,27.7975,8.4832,41.6035,13.0082
		c3.5224,1.1546,7.0161,2.3979,10.5026,3.664l-0.0061-0.0047l74.9177,22.2065c5.1714,1.0998,10.2501,2.5774,15.3319,4.2318
		c8.8966,2.8965,18.1101,4.9711,27.3187,6.6951c4.6633,0.8728,9.6222,0.3264,14.44,0.179c8.3006-0.2542,16.61-0.4995,24.8883-1.1167
		c8.7835-0.6548,17.7137-0.9477,26.2469-2.8732c7.4065-1.6714,14.8199-2.3237,22.2636-3.2805
		c5.1479-0.6617,10.173-2.2336,15.3104-3.0282c8.962-1.3865,18.0029-2.2776,26.9475-3.7589
		c12.1778-2.0174,24.3591-4.0994,36.4277-6.6748c28.8544-6.1571,57.6777-12.4702,86.4437-19.026
		c12.9009-2.9401,25.6349-6.6131,38.4443-9.9555c0.2484-0.0649,0.4971-0.1374,0.7352-0.2324
		c3.754-1.4962,5.7722-1.5006,7.6401,1.0628c0.4645,0.3813,0.9683,0.8096,1.5459,1.2962
		c0.6022,0.5076,29.0099,17.0544,39.9538,22.2063c0.2911,0.1371,0.6526,0.1993,0.8654,0.4124
		c0.4258,0.4266,0.7714,0.9335,1.1502,1.4071c-0.4565,0.3012-0.8889,0.8125-1.3733,0.8679c-2.4193,0.276-4.895,0.8199-7.2714,0.5554
		c-2.118-0.2356-9.0122,0.6729-17.4575,2.0541c-0.2449,0.0872-0.4907,0.1616-0.7351,0.2537
		c-1.3582,0.5115-2.9489,0.7163-4.4042,0.6107c-3.5859,0.6188-7.3181,1.292-10.9919,1.9772
		c-0.4305,0.2395-0.8568,0.4961-1.2753,0.7844c-2.2664,1.5616-4.8076,1.3104-7.2738,1.3819
		c-1.4232,0.0414-2.8303,0.1533-4.2277,0.3091c-7.0845,1.4282-12.6492,2.656-14.4719,3.2212
		c-4.0842,1.2658-8.4138,1.7387-12.6318,2.5752c-13.6251,2.7021-27.1703,5.9578-40.9005,7.9244
		c-9.5622,1.3694-19.0002,3.209-28.4763,4.9569c-13.5928,2.5074-27.2103,4.8815-40.8174,7.31
		c-0.3796,0.0678-0.7805,0.106-1.1385,0.1778c-6.0182,3.0539-12.635,3.2878-19.1301,4.1055
		c-1.7874,0.225-3.5756,0.4743-5.3451,0.8091c-0.4905,0.097-1.2246,0.2397-0.1849,0.0311
		c-12.8524,2.4795-25.6572,5.2378-38.5601,7.4153c-13.0633,2.2047-26.2386,3.7381-39.3337,5.7663
		c-9.0876,1.4076-18.1273,3.1279-27.1797,4.7569c-6.7482,1.2141-13.4894,2.4572-20.2585,3.5285
		c-12.622,2.1665-25.7228,4.3851-27.9807,4.7784c-7.4756,1.3018-15.0216,2.2018-22.4918,3.5312
		c-6.3888,1.137-12.6742,2.8764-19.0757,3.9174c-5.96,0.9693-12.0096,1.3993-18.0266,1.997
		c-1.4612,0.1452-2.5798-0.4822-3.1661-1.9804c-1.9419-4.9641-5.4952-8.4265-10.1235-10.9632
		c-48.3121-26.4805-96.5699-53.0604-144.9293-79.4545c-22.0307-12.024-44.2492-23.7047-66.3954-35.5172
		c-3.7445-1.9973-7.5583-3.8645-11.3289-5.8135c-0.5534-0.286-1.0442-0.6933-1.5641-1.0444
		C65.9992,337.9522,66.0266,337.7766,66.0541,337.6008z M697.3932,458.083c2.6653,4.0844,5.7413,7.9012,8.6547,11.8222
		c0.4126,0.5551,0.9218,1.0381,1.6182,1.8126c-3.8601,0.7614-7.4202,1.4573-10.9776,2.1665
		c-20.3065,4.0482-40.6042,8.1416-60.9207,12.1381c-16.6555,3.2766-33.3208,6.5034-49.9864,9.729
		c1.6865-0.6725,2.5921-2.2906,2.6993-4.8759c-0.9869-3.7173-1.6569-6.6305-2.011-8.7365l-1.1166-6.6393l14.3315-2.4106
		l2.0428,12.1452c1.1666,3.9661,2.8034,5.7734,4.9075,5.4188c2.2941-0.386,3.3289-2.0727,3.1046-5.0593l-6.3195-37.5701
		c-0.8037-4.7782-2.488-6.9508-5.0524-6.5198c-2.3206,0.3908-3.5444,2.1109-3.6699,5.1553
		c1.0266,3.9632,1.7906,7.4297,2.2897,10.3978l1.3964,8.2996l-14.3316,2.4106l-2.6011-15.4649
		c-1.1671-3.9681-2.803-5.7744-4.9084-5.4198c-2.2941,0.3859-3.329,2.0727-3.1037,5.0603l2.8809,17.1242
		c-3.0048,0.6171-4.2914,2.2069-3.8599,4.7713c0.4991,2.969,2.251,4.1454,5.2562,3.5293l2.0424,12.1443
		c0.7278,4.3246,2.178,6.507,4.3477,6.5639c-4.4277,0.8568-8.855,1.7144-13.2825,2.572
		c-26.5106,5.1352-53.03,10.2249-79.536,15.3846c-27.8918,5.4291-55.7651,10.9541-83.6601,16.3672
		c-17.9869,3.4904-35.9829,6.939-54.0039,10.2482c-14.9269,2.741-29.9025,5.2145-44.8419,7.8899
		c-3.4093,0.6105-6.7328,1.6965-10.1399,2.3252c-4.8257,0.8904-7.8394-1.1368-9.0208-5.8701
		c-1.7387-6.9647-2.5671-14.0488-2.4895-21.2219c0.0784-7.2424,1.2435-14.3223,3.1169-21.3284
		c2.9339-10.9732,10.253-16.9374,21.1303-18.8051c21.5519-3.7009,43.1326-7.2343,64.6894-10.9071
		c21.3019-3.6297,42.599-7.2902,63.8801-11.0399c21.8468-3.8488,43.6559-7.9117,65.5098-11.7179
		c27.2399-4.7441,54.5373-9.1626,81.7571-14.0161c27.4067-4.8869,54.7452-10.1536,82.1205-15.2171
		c12.9609-2.3974,25.9378-4.7094,38.9088-7.0529c0.1802-0.0326,0.3771,0.0284,0.7596,0.0637
		c-2.4589,4.3885-4.9149,8.6672-7.2697,13.0006c-3.1124,5.7281-5.7611,11.6195-6.7695,18.1633
		C694.2369,449.6394,694.8063,454.1186,697.3932,458.083z M754.7122,486.9489c-0.9448-1.557-0.4964-2.297,1.6738-3.663
		c8.1172-5.1097,16.2618-10.1759,24.399-15.2533c1.7477-1.0905,3.4813-2.2098,5.2824-3.2055
		c0.6061-0.335,1.4017-0.3269,2.1109-0.4756c0.0791,0.668,0.31,1.3591,0.214,2.0009c-1.0544,7.0588-2.1342,14.1139-3.2587,21.1619
		c-1.2922,8.101-0.7285,16.176,0.2013,24.2555c0.1541,1.3386,0.3152,2.7072,0.2048,4.0396c-0.537,6.4796,1.6,12.1386,5.0644,17.4548
		c2.4506,3.7604,2.4177,3.8143-1.3067,6.4843c-34.4338,24.685-68.7621,49.5199-103.3443,73.9955
		c-32.8967,23.2825-66.061,46.1868-99.1061,69.2595c-3.3255,2.322-6.6023,4.7159-9.9707,6.974
		c-3.9203,2.6281-6.4267,2.1472-9.1907-1.6882c-7.3553-10.2053-11.2737-21.5853-11.6819-34.1786
		c-0.0894-2.763-0.218-5.5508-0.6705-8.27c-0.7932-4.7637-0.0186-9.3362,1.1044-13.9224c1.1774-4.8085,2.3818-9.6144,3.3851-14.4609
		c1.4154-6.8384,5.1866-11.9643,10.9857-15.6679c46.6063-29.7661,93.1966-59.5571,139.8736-89.2116
		c4.5341-2.8806,9.5728-4.9971,14.4841-7.2333c1.3047-0.5941,3.0065-0.3162,4.5262-0.4386
		c9.2113,0.4217,16.9001-2.6185,22.902-9.3306C753.8962,494.027,756.3384,490.4503,754.7122,486.9489z M424.9029,586.8945
		c18.4929,3.2369,37.0088,6.3981,55.3939,10.1788c19.7041,4.0523,39.2644,8.8013,58.8979,13.2002
		c1.8077,0.4048,3.6884,0.4935,5.539,0.6967c3.015,0.3308,4.1053,1.5107,3.5175,4.4593c-0.5882,2.9516-1.6169,5.8123-2.3374,8.7411
		c-2.2867,9.2958-2.1278,18.7645-1.9201,28.2358c0.1567,7.1481,0.0867,14.3482,2.6942,21.1491
		c2.2083,5.7601,4.7074,11.4091,7.0835,17.1051c0.2632,0.6313,0.5645,1.2469,0.9734,2.1452
		c-3.8787-0.4812-7.4344-0.9609-10.9997-1.3579c-11.3222-1.2599-22.6647-2.3543-33.9668-3.7739
		c-8.8033-1.1054-17.5584-2.5958-26.3338-3.9235c-15.0111-2.2711-30.0585-4.3286-45.0219-6.8802
		c-17.8057-3.0361-35.6242-6.0971-53.2847-9.863c-32.9437-7.0247-65.826-14.3563-98.6416-21.9582
		c-27.1121-6.2808-54.0799-13.1816-81.1324-19.7213c-20.3699-4.9241-40.7851-9.6599-61.1543-14.587
		c-7.1722-1.735-14.4312-3.2077-21.0806-6.712c-3.0841-1.6255-5.2038-3.696-6.3181-7.0784
		c-3.6742-11.1535-6.0998-22.4955-5.3616-34.3011c0.7149-11.4315,3.3294-22.3226,10.8016-31.4027
		c2.3886-2.9026,5.2988-5.4276,8.2089-7.8375c3.8908-3.2222,8.1481-3.2521,12.5891-0.8748
		c10.4382,5.5875,21.0526,10.8569,31.3691,16.658c19.9144,11.1985,39.701,22.626,59.4823,34.0592
		c9.0281,5.2177,17.9113,10.6855,26.8723,16.0198c9.2343,5.4974,19.3208,6.7272,29.8053,5.8429
		c19.888-1.6772,39.1577-6.58,58.4821-11.2108c7.3122-1.7521,14.6379-3.48,22.0209-4.8864
		c2.6425-0.5035,5.6047-0.5578,8.1941,0.0899C394.2963,582.8647,409.7073,584.2346,424.9029,586.8945z M407.4111,572.3494
		c0.0455-0.3005,0.0909-0.6012,0.1364-0.9019c2.6604-0.2733,5.3152-0.6823,7.9825-0.7957c9.7476-0.4148,19.1621,1.566,28.571,3.8685
		c9.6673,2.3655,19.4291,4.3477,29.1632,6.4341c8.8423,1.8951,17.7122,3.6608,26.5527,5.5625
		c15.8954,3.4198,31.7793,6.8935,47.6637,10.3644c0.9323,0.2037,1.8633,0.5062,2.7197,0.9188
		c0.3455,0.1665,0.4886,0.753,0.7239,1.1483c-0.3571,0.1971-0.728,0.5865-1.0687,0.5615c-3.0535-0.2241-6.15-0.2669-9.1437-0.8358
		c-33.5305-6.3721-67.0453-12.8267-100.5635-19.263c-10.0346-1.9268-20.0709-3.8461-30.0942-5.8297
		C409.1282,573.398,408.2899,572.7706,407.4111,572.3494z M492.9874,578.8846c-14.4352-2.8838-28.7638-6.2992-43.1392-9.4812
		c-0.4271-0.0945-0.8424-0.2419-1.2631-0.3646c-0.0122-0.1317-0.0242-0.2632-0.0362-0.395
		c8.9478-2.8152,17.7389-6.3864,26.8777-8.2798c16.2845-3.3735,32.5147-7.0193,48.8376-10.2146
		c13.1845-2.5811,26.3188-5.421,39.5142-7.9433c8.0094-1.531,16.2001-2.2223,24.1198-4.0927
		c14.8187-3.5004,29.5291-7.4744,44.2302-11.4528c18.3055-4.9535,36.5528-10.1225,54.8383-15.1517
		c1.1289-0.3105,2.371-0.2106,3.5606-0.3015c0.0505,0.226,0.1011,0.4521,0.1516,0.6783c-0.6318,0.3915-1.2482,0.8115-1.8981,1.1705
		c-5.0701,2.8007-10.2464,5.4249-15.1962,8.423c-6.4907,3.9313-12.7117,8.3109-19.2253,12.201
		c-4.739,2.8301-9.9117,4.9379-14.6306,7.7974c-8.6929,5.2677-17.1566,10.9123-25.787,16.2855
		c-7.5953,4.7287-15.3645,9.1814-22.8973,14.0054c-2.7246,1.7448-5.0062,4.1902-7.4543,6.356
		c-6.3604,5.6265-13.4632,10.1372-21.0073,13.9738c-0.6749,0.3433-1.5893,0.4041-2.3671,0.3301
		C537.3385,590.2521,515.4047,583.3635,492.9874,578.8846z M735.5471,492.8046c-7.6391,1.7634-15.3385,3.2663-23.0151,4.8663
		c-10.5104,2.1905-21.0279,4.3481-31.5344,6.5585c-5.3419,1.1237-10.6495,2.4165-16.0016,3.4861
		c-17.0828,3.4137-34.2014,6.652-51.2657,10.1553c-26.765,5.4948-53.5019,11.1281-80.2418,16.7466
		c-15.9796,3.3576-31.9186,6.9126-47.92,10.1607c-9.7615,1.9814-19.6504,3.3392-29.4005,5.3701
		c-7.4165,1.5447-14.6499,3.9634-22.0606,5.5435c-15.5308,3.3108-31.1218,6.3391-46.6932,9.4579
		c-22.8824,4.5833-45.768,9.1503-68.6548,13.7117c-9.1452,1.8227-18.294,3.628-27.4495,5.3978
		c-1.1257,0.2177-2.4001,0.4768-3.432,0.1572c-1.1757-0.3641-2.8311-1.162-3.1039-2.1092
		c-1.0878-3.7773-3.5574-6.1816-6.7688-8.0513c-10.791-6.2828-21.4753-12.7599-32.4042-18.7934
		c-34.6481-19.1281-69.4282-38.017-104.0795-57.1394c-23.607-13.0276-47.1122-26.2412-70.5965-39.4892
		c-5.0387-2.8423-9.8407-6.1184-14.6489-9.3474c-1.542-1.0354-2.7542-2.562-4.1171-3.864c0.1799-0.2084,0.3596-0.4168,0.5396-0.6255
		c0.5123,0.3093,1.0243,0.6191,1.5371,0.9276c18.9109,11.3876,37.571,23.2211,56.8044,34.0349
		c18.7216,10.5261,37.9523,20.1613,57.1007,29.9096c22.9897,11.7043,46.1231,23.1261,69.2056,34.6471
		c10.7683,5.3747,21.5867,10.649,32.3391,16.0553c8.4049,4.226,17.0723,4.4481,26.1323,2.5872
		c24.3738-5.0062,48.7896-9.8096,73.1996-14.6389c27.2455-5.3901,54.4979-10.745,81.7566-16.0681
		c24.8623-4.8553,49.7359-9.6518,74.6062-14.466c24.4869-4.7402,48.9716-9.4939,73.4653-14.1983
		c29.1096-5.5909,58.2309-11.1187,87.3397-16.7126c7.7638-1.4918,15.508-3.089,23.2468-4.7057
		c6.0547-1.2648,8.5472-3.8875,9.691-9.9623c0.024-0.1264,0.0431-0.2537,0.0705-0.3796c0.6688-3.0476,1.461-3.4049,3.9698-1.6133
		c4.1917,2.993,8.3417,6.045,12.494,9.093c0.9844,0.7224,1.9838,1.4517,2.8472,2.308
		C742.7121,485.988,741.3053,491.4754,735.5471,492.8046z M279.6944,550.3738c0.131,0.2743,0.1891,0.5836,0.3617,1.1334
		c-16.7082-7.7643-33.1996-15.3168-49.5943-23.0737c-22.2697-10.5366-44.5798-20.9981-66.6637-31.9147
		c-26.6777-13.1875-52.2315-28.4048-77.5043-44.0916c-8.7505-5.4313-17.5247-10.8246-26.3195-16.1836
		c-2.512-1.5308-4.2993-3.5895-5.5442-6.2404c-7.0747-15.0635-6.7576-30.3705-1.5899-45.8479
		c2.0669-6.1902,4.5253-12.1842,8.7082-17.3184c2.3783-2.9188,3.8621-3.1916,7.3743-1.7901
		c22.4285,8.95,43.1469,21.274,64.3529,32.6237c26.3245,14.0891,52.5229,28.4141,78.7977,42.5965
		c23.2209,12.5341,46.4275,25.0905,68.8777,38.9852c0.1095,0.0678,0.2202,0.1337,0.3299,0.2008
		c4.2424,2.5975,4.4948,3.5567,1.9375,7.839c-3.6715,6.1483-5.4313,12.935-6.2103,19.9333
		c-0.7964,7.1545-1.4117,14.3573-1.5454,21.5495C275.3245,536.207,276.4316,543.5371,279.6944,550.3738z M74.4497,472.1751
		c-4.1776-2.2755-8.5728-4.1474-12.8154-6.308c-16.3448-8.3236-25.6484-21.7183-28.6649-39.7099
		c-0.4186-2.4971-1.8794-4.8215-2.2831-7.3188c-0.8395-5.1942-1.2938-10.4507-1.9064-15.6814
		c-0.0291-13.1586,2.2086-25.9543,5.5079-38.5523c2.0054-7.6573,7.2113-13.3978,12.8375-18.7172
		c0.2335-0.2206,0.4671-0.4438,0.7182-0.6436c1.5403-1.2259,2.9878-3.2942,4.6508-3.4867c3.235-0.3742,6.6545-0.4178,9.8007,1.2577
		c15.0508,8.0155,30.1746,15.8951,45.2058,23.9474c37.1016,19.8752,74.2673,39.6339,111.2097,59.8011
		c23.6117,12.8899,46.8798,26.4092,70.2632,39.7142c1.1612,0.6607,2.0656,1.8888,2.8808,3.005
		c0.6808,0.9325-0.0281,2.0448-1.1801,1.829c-1.2332-0.2312-2.4915-0.6681-3.577-1.2952
		c-15.2163-8.7874-30.2238-17.9544-45.6399-26.3735c-27.4471-14.9891-55.0596-29.6804-82.7489-44.2182
		c-24.6104-12.9215-49.4344-25.4353-74.1204-38.2136c-3.2451-1.6797-6.2964-3.7641-9.322-5.8304
		c-5.0304-3.4359-10.4488-4.775-16.4874-3.7122c-2.0846,0.3669-4.2542,0.2513-6.338,0.6208
		c-5.3759,0.9538-9.2684,4.0927-11.1383,9.1163c-4.4363,11.9192-8.0048,24.1015-7.8796,36.9809
		c0.1741,17.8907,4.0242,34.8112,13.7099,50.1546c2.949,4.6716,6.855,8.1894,11.6049,10.7891
		c16.8798,9.2387,33.8539,18.3063,50.7017,27.6028c46.4322,25.6207,92.8229,51.3169,139.2195,77.0022
		c8.616,4.7699,17.2019,9.5953,25.7525,14.4814c1.3057,0.7462,2.371,1.9329,3.4835,2.9837c0.2569,0.2424,0.455,0.9942,0.3235,1.1113
		c-0.31,0.2765-0.8951,0.517-1.2631,0.4094c-1.7159-0.5008-3.5278-0.8865-5.0703-1.7391
		c-47.2065-26.0921-94.3747-52.2538-141.5736-78.3598C111.7264,492.5426,93.1014,482.3341,74.4497,472.1751z M555.5965,723.8768
		c-2.9351-0.1286-5.8644-0.6979-8.7656-1.2401c-17.9503-3.3557-35.8669-6.8969-53.8458-10.0897
		c-10.1908-1.8097-20.5477-2.7131-30.7069-4.665c-16.0952-3.0921-32.1064-6.6331-48.1182-10.1448
		c-21.7261-4.765-43.4333-9.6188-65.1227-14.5478c-30.8399-7.0081-61.6522-14.1369-92.4842-21.1783
		c-17.1081-3.9071-34.3489-7.2958-51.3205-11.7211c-21.3901-5.5772-42.5723-11.9545-63.8319-18.0298
		c-6.1183-1.7485-12.1921-3.6522-18.2896-5.4741c-7.902-2.3611-14.369-6.8354-19.4053-13.3342
		c-7.0845-9.142-12.9343-18.9363-15.0692-30.5061c-2.7851-15.0927,0.1423-29.2546,7.1418-42.7567
		c4.4748-8.6319,11.0362-15.461,18.2342-21.7836c1.3542-1.1896,2.6353-2.49,4.1102-3.507c1.5129-1.0435,3.2222-1.8021,4.8456-2.6854
		c0.1439,0.2143,0.2876,0.4286,0.4314,0.6426c-0.6673,0.7594-1.2313,1.6534-2.0183,2.2561
		c-6.0131,4.6048-10.3136,10.568-13.7456,17.2146c-1.9483,3.7732-3.806,7.5939-5.6568,11.416
		c-0.3558,0.7349-0.6436,1.5657-0.7033,2.3715c-0.7897,10.659-1.5714,21.3039-0.7246,32.02
		c0.7895,9.992,2.4268,19.8373,4.3353,29.651c0.8398,4.3193,3.9352,6.5546,7.8868,7.5968
		c6.6485,1.7534,13.3479,3.3152,20.0349,4.9207c28.8737,6.9321,57.7509,13.8508,86.6266,20.7751
		c13.3133,3.1926,50.8479,13.199,52.9948,14.0532c4.7179,1.8773,52.0481,15.4304,68.1651,18.7282
		c14.4866,2.9641,29.0074,5.7614,43.4908,8.7407c18.3237,3.769,36.6212,7.6646,54.9365,11.4742
		c25.8058,5.3679,51.6097,10.7448,77.431,16.0384c9.6347,1.9755,19.3101,3.7553,28.979,5.5587
		c2.0176,0.3761,4.0859,0.4988,6.1365,0.6744c2.559,0.2189,4.7911,1.0266,6.2277,3.3067
		C559.189,721.8624,558.2045,723.9911,555.5965,723.8768z M798.9648,547.2479c3.0126-2.1577,5.3617-5.3255,7.7479-8.246
		c1.7625-2.1572,1.2822-4.1809-0.8154-6.1304c-1.2693-1.1798-2.4807-2.4229-3.6975-3.6576
		c-0.2574-0.2613-0.4258-0.6105-0.635-0.9193c0.0713-0.1558,0.1425-0.312,0.2138-0.4678c0.4493,0.0789,0.9261,0.0865,1.3442,0.2474
		c5.2816,2.0316,10.5917,3.996,15.8197,6.1583c5.0816,2.1018,5.7254,6.5869,1.6596,10.2679
		c-8.1414,7.3708-16.8257,14.0242-25.7062,20.4233l0.0105,0.0002l-42.5326,31.2545c-4.5666,4.199-9.5561,7.8914-14.683,11.4297
		c-26.6017,18.3584-53.0183,36.9916-79.8448,55.0153c-15.5905,10.4746-31.8273,19.9879-47.7786,29.925
		c-2.0217,1.2595-4.0827,2.4554-6.1098,3.7061c-0.4851,0.2995-1.0102,0.6242-1.3415,1.0679
		c-2.947,3.9478-7.0465,6.3489-11.3288,8.4973c-5.4646,2.7412-10.986,5.3727-16.407,8.197
		c-1.8601,0.9688-3.5748,2.2735-5.2106,3.6038c-2.5833,2.1011-4.2083,2.3523-6.511,0.5875
		c-0.2382-0.1824-0.4812-0.3793-0.7358-0.6056c-4.3212-3.8376-9.6423-5.2329-15.1208-6.2891
		c-15.5939-3.0069-31.1884-6.0107-46.7733-9.0634c-15.3958-3.0157-30.7953-6.0158-46.1645-9.1628
		c-11.3362-2.321-22.6263-4.8666-33.9362-7.3154c-0.1758-0.0382-0.3426-0.118-0.4712-0.4587
		c3.7298,0.4599,7.4827,0.7831,11.186,1.402c23.0913,3.8591,46.1486,7.9283,69.2668,11.6171
		c9.3308,1.4886,18.8022,2.0751,28.1812,3.2917c6.9451,0.9012,13.8171,2.4004,20.7723,3.1852
		c6.7047,0.7567,13.4691,1.0811,20.2169,1.3157c3.5909,0.1249,6.6902-1.6556,9.5651-3.7
		c17.7891-12.6497,35.516-25.3873,53.3749-37.9376c28.8159-20.2504,57.7624-40.3149,86.5703-60.5766
		C745.7916,585.1309,772.4261,566.2555,798.9648,547.2479z M796.1386,444.1969l-0.2214,0.1349
		c-1.4166,0.9227-2.832,1.8481-4.2551,2.7613c-1.3461,0.8637-2.7518,1.6525-4.1897,2.3808l-17.1982,10.4724l-8.4429,5.1408
		l-0.8397,0.5116l-8.6578,5.2721c-1.1605,1.6909-2.3161,1.2922-5.5011-0.5948c-9.4089-5.5748-18.7838-11.2076-28.2189-16.7375
		c-2.1555-1.2634-4.544-2.1234-6.7455-3.3162c-4.1569-2.2517-5.5417-5.457-3.9559-9.8497
		c2.8448-7.8804,6.9349-15.0391,12.7513-21.1751c4.8975-5.1663,10.53-7.5901,17.8268-6.4495
		c4.7977,0.7498,9.7449,0.6046,14.6286,0.73c8.8322,0.2265,17.2442,2.4983,25.7052,4.7828
		c9.4843,2.561,19.1318,4.5135,28.6489,6.9613c3.505,0.9014,6.8408,2.4601,10.6941,3.8812
		c-0.7254,0.7814-0.9291,1.1059-1.2203,1.2991c-6.9349,4.6048-13.8459,9.2471-20.819,13.7926L796.1386,444.1969z" fill="#43aeff" class="color000 svgShape"></path><path d="M228.9176 261.9408c-3.1149-1.0598-8.9745 7.6462-17.5773 26.1203 3.5464-19.8277 3.8031-30.2598.7704-31.2922-2.9783-1.0128-9.2747 7.5463-18.8884 25.6756 4.5862-19.8415 5.3228-30.2911 2.2079-31.351-1.53-.5211-3.3407.815-5.4325 4.0063-1.4605 8.8628-2.1814 13.8447-2.1599 14.9496-5.3203 21.8162-6.1505 33.3473-2.489 34.5933.9472.2606 2.5772-.5407 4.8889-2.4057l15.1348-25.2603c-3.5557 21.3793-3.9274 32.548-1.1128 33.506.7944-.096 1.3831-.0783 1.7661.0509 2.0492.6974 10.3649-13.5293 24.9492-42.6803C230.9692 264.3759 230.283 262.4051 228.9176 261.9408zM260.8367 276.048c-2.3494-.7993-4.3457.1841-5.9869 2.9484-1.0305 4.1924-2.056 7.7892-3.0787 10.7945l-2.8593 8.4025-14.5079-4.9369 5.3267-15.6569c.9021-4.2649.289-6.7588-1.8425-7.4856-2.3225-.7895-4.1273.2586-5.4134 3.1423l-5.8992 17.3378c-3.0963-.9325-5.0872-.1019-5.9703 2.4939-1.0231 3.0052.0147 4.9741 3.112 5.9066l-4.1841 12.2951c-1.6456 4.8369-1.1701 7.6952 1.4257 8.5788 2.3489.7993 4.3442-.1822 5.9869-2.9464.9462-3.9475 1.7818-6.9841 2.5076-9.1175l2.2867-6.7196 14.5084 4.9369-4.1836 12.2951c-.9036 4.2649-.289 6.7588 1.842 7.4856 2.3225.7895 4.1268-.2567 5.4134-3.1424l12.9416-38.0334C263.9075 279.7899 263.4325 276.9316 260.8367 276.048zM285.7154 328.1867c-3.1967-1.0893-11.0467-2.5252-23.5475-4.31l5.2327-13.6292c13.6831 3.9534 20.6221 4.3021 20.8161 1.0461.5123-1.7769-.527-3.2893-3.1208-4.5372-5.7205-1.8259-10.8914-3.2501-15.5114-4.2727l3.3045-9.5759c17.1859 4.2316 26.2584 4.9427 27.2164 2.1276 1.1735-2.3744-.0015-4.163-3.5263-5.362-4.0714-1.385-10.5868-3.0679-19.5456-5.0485-6.5125-2.0962-10.554-.8326-12.1252 3.7849-2.5728 7.2035-4.7752 13.8075-6.6055 19.814-1.8307 6.0104-2.9371 9.574-3.3182 10.6926-1.5609 5.7499-1.2278 9.431.9986 11.0413 2.8411.9658 5.9076 1.7201 9.1993 2.2607 16.1932 3.8339 24.3713 3.8124 24.533-.0666C289.0982 330.2045 287.7641 328.8822 285.7154 328.1867zM329.7563 290.9487c-2.7692.5211-4.3251 1.2871-4.6689 2.298-1.1069 3.252-3.6419 13.882-7.6051 31.8917-.3938 1.5124-.8542 1.5692-1.3841.1685-4.9824-20.7465-8.4838-31.4666-10.5055-32.1542-1.864-1.0598-3.5674 1.3929-5.1112 7.3602-8.087 29.3214-10.8327 44.4219-8.2359 45.3055 2.922 1.1754 4.9956.145 6.221-3.0973 3.2325-12.0091 5.095-18.7365 5.5882-20.1843.43-1.8043.9472-2.0727 1.5516-.7993 4.7488 18.5661 7.8632 29.1686 9.3438 31.8075 2.2607 1.865 3.8912 1.5516 4.8932-.9443 6.5183-28.1146 9.5862-42.2375 9.2037-42.3668C333.0166 298.5675 333.2532 292.1378 329.7563 290.9487zM364.539 313.4388c-2.2407-.7621-3.9857.2449-5.2346 3.0209l-12.4391 36.5562c-1.581 4.645-1.1147 7.3955 1.3993 8.2516 2.2402.7621 4.163-.1861 5.767-2.8387.8909-3.783 1.6897-6.7118 2.3965-8.7884l9.8737-29.0158C367.175 316.5302 366.5887 314.1363 364.539 313.4388zM396.2314 313.5681c-2.7691.5231-4.3251 1.2871-4.6689 2.298-1.1064 3.252-3.6419 13.882-7.6051 31.8917-.3933 1.5124-.8542 1.5712-1.3841.1685-4.9819-20.7466-8.4837-31.4666-10.5045-32.1542-1.8646-1.0598-3.5685 1.3929-5.1122 7.3622-8.087 29.3194-10.8317 44.42-8.2359 45.3035 2.9219 1.1754 4.9956.145 6.221-3.0973 3.2325-12.0071 5.0951-18.7365 5.5883-20.1843.4305-1.8043.9482-2.0707 1.5516-.7993 4.7493 18.5661 7.8632 29.1706 9.3438 31.8075 2.2608 1.865 3.8917 1.5516 4.8938-.9423 6.5178-28.1146 9.5857-42.2375 9.2032-42.3688C399.4918 321.187 399.7283 314.7573 396.2314 313.5681zM510.835 311.4141c-9.4378 1.3919-13.8438 3.0992-13.2198 5.121l8.6591 38.437 1.8131 5.7704c.7366 3.5616 5.4428 4.4451 14.1195 2.6497 12.322-2.5487 17.6389-11.679 15.9512-27.3937C533.6895 317.6783 524.5818 309.4835 510.835 311.4141zM521.4384 353.6928l-2.968.6132-3.8251.526c-3.2971-16.6462-5.7156-27.5524-7.2545-32.7145 11.2734-4.3374 18.5622.9041 21.8632 15.7225C531.1373 346.9409 528.5322 352.2245 521.4384 353.6928zM562.1415 302.3466c-2.8848-1.2607-5.8322-1.1216-8.8447.4144-1.0633-.7219-2.4454-.8493-4.1464-.3791-8.3907 7.3054-11.6241 15.6079-9.7003 24.9056 4.4001 16.7148 11.9821 24.4443 22.7458 23.1895 12.0541-3.7007 17.0732-13.4186 15.0564-29.1529C574.2932 309.5883 569.2559 303.2614 562.1415 302.3466zM561.2648 340.6346c-6.1039.5564-10.2856-3.9142-12.5444-13.4079-1.295-5.8331-.8522-10.3899 1.3282-13.6704 1.5971 1.8807 3.8461.9296 6.748-2.8544 5.7621-.7797 10.2474 3.4499 13.4559 12.6889C571.1107 332.528 568.1152 338.274 561.2648 340.6346zM608.1234 298.3158c-1.4551-4.3266-3.327-6.2524-5.6161-5.7793-2.5155.5201-3.5954 2.4234-3.2399 5.7097l4.9868 24.9625c1.6241 8.4171.2204 13.4529-4.212 15.1064-5.267.4711-8.8506-5.2425-10.7519-17.1379l-3.4993-16.9146c-1.0819-5.2288-3.0366-7.5522-5.8616-6.9674-2.5164.5211-3.7927 2.4655-3.8329 5.8341 1.3022 4.2982 2.2881 8.0743 2.9606 11.3224l1.8768 9.0724c4.2433 18.5152 11.1633 26.323 20.7607 23.4236 11.1255-2.0658 14.3061-12.9798 9.5397-32.7429L608.1234 298.3158zM641.7351 310.99c2.7172-4.0984 3.8701-7.9323 3.4562-11.5017-.3502-10.0951-8.4916-13.833-24.4247-11.2157l-5.0446 1.0442c-4.4662.9237-6.2362 3.6184-5.3125 8.0831 1.3743 6.6422 4.168 18.2957 8.3819 34.9596.5681 2.1805 1.15 3.9906 1.7426 5.4305.6954 3.3628 5.1269 4.2003 13.2947 2.5106 13.879-4.2864 19.9183-10.7808 18.1169-19.4868C650.9457 315.9807 647.5422 312.7061 641.7351 310.99zM622.0121 308.3952l-2.202-10.6407 6.5844-1.9375c5.7489-.4212 8.9706 1.0481 9.6661 4.4118-.1509 4.6871-2.4866 7.4993-7.0081 8.4338l-2.2471.4653C624.0638 309.695 622.4657 309.4502 622.0121 308.3952zM636.5867 330.9764c-2.8838.5956-5.9409.8463-9.1738.7484l-2.7716-13.3971c-.3399-.9305.1733-1.2293 1.5398-.8923 10.5467.2654 16.153 2.007 16.8196 5.2288C643.7607 326.3383 641.6224 329.1094 636.5867 330.9764zM684.3409 282.9449c-.4731-2.2892-1.9542-3.6027-4.4412-3.9436-20.7711 3.7379-31.5376 7.3945-32.3011 10.9708l.1224.5936c.48 2.3176 1.9611 3.6321 4.4422 3.9436l10.8699-3.4421c3.4333 13.3187 5.939 24.3669 7.5199 33.1475.9648 4.6635 2.8828 7.0948 5.7538 7.2975 1.9512-.4036 2.9993-2.2412 3.1473-5.5148-2.395-8.7277-4.838-19.1136-7.3279-31.1521l-1.0883-5.2572c9.4065-1.8278 13.882-3.8456 13.4265-6.0496L684.3409 282.9449zM700.8549 317.6802c-2.3186.48-3.3118 2.2324-2.9797 5.2591.2928 3.1218 1.7377 4.4148 4.3383 3.876 2.3176-.479 3.495-2.2696 3.5303-5.3727C704.6036 318.4962 702.9746 317.2414 700.8549 317.6802zM713.6995 315.0227c-2.3176.479-3.3108 2.2324-2.9788 5.2591.2929 3.1218 1.7377 4.4148 4.3384 3.876 2.3166-.479 3.494-2.2696 3.5302-5.3727C717.4492 315.8387 715.8203 314.5839 713.6995 315.0227zM726.5452 312.3653c-2.3185.4799-3.3109 2.2324-2.9797 5.2591.2919 3.1218 1.7386 4.4148 4.3383 3.876 2.3176-.479 3.494-2.2696 3.5313-5.3727C730.2948 313.1812 728.6649 311.9264 726.5452 312.3653zM405.703 476.1611c-2.6884-1.2969-5.4869-1.2695-8.3951.0803-.9825-.7229-2.2882-.8914-3.9152-.5084-8.211 6.6275-11.5693 14.3806-10.076 23.2591.4643 2.0749.9874 4.0016 1.5636 5.7939-2.8191-2.3088-6.7287-3.0512-11.7424-2.2079-7.2608 1.2215-11.1016 3.0483-11.5262 5.4785l.3884 2.3078c.8791 1.433 2.3577 1.9757 4.4373 1.626 9.07-2.6633 13.9887-2.7133 14.7528-.1508 1.1637 4.9398-2.2172 8.2693-10.1426 9.9912-6.9096 1.1617-11.1064-2.6692-12.5914-11.4948-1.5437-9.1773.3918-16.3994 5.8062-21.6683 2.1212-1.577 4.0709-1.6975 5.8512-.3595 2.7339 5.0358 5.3017 7.3504 7.704 6.9468 2.1168-1.438 3.0077-3.156 2.6717-5.1533-1.1848-7.0448-5.8836-10.3899-14.094-10.0353-3.2383.5446-5.9997 1.7867-8.2825 3.7242-7.1036 9.2439-9.8639 18.5759-8.2795 27.9951.1954 1.1608 1.578 4.6753 4.1464 10.5427 3.9965 6.4336 9.7454 9.0176 17.2491 7.756 11.893-2.001 17.7653-7.4927 17.6434-16.4616 3.7862 5.9272 8.843 8.6503 15.1784 8.1512 11.5556-3.0807 16.6555-12.112 15.3004-27.094C416.9627 483.4527 412.4133 477.2797 405.703 476.1611zM403.5172 512.4136c-5.8037.3105-9.6082-4.0729-11.412-13.1512-1.0212-5.5726-.4408-9.8737 1.7416-12.9063 1.4473 1.8386 3.6125 1.0158 6.4963-2.4665 5.4883-.5338 9.5891 3.6321 12.3015 12.5018C413.1352 505.0799 410.0918 510.4193 403.5172 512.4136zM474.4222 470.1379c-.3678-2.1853-1.7245-3.4842-4.0695-3.8936-19.816 2.8054-30.1481 5.89-30.9984 9.2517l.0955.5671c.3722 2.2128 1.7294 3.5116 4.0685 3.8946l10.4237-2.8779c2.7814 12.7437 4.7654 23.3022 5.9526 31.6791.7488 4.453 2.4802 6.8274 5.194 7.1192 1.8626-.3134 2.922-2.0178 3.1781-5.1141-1.961-8.3564-3.9083-18.284-5.8419-29.7818l-.8448-5.0201c8.9789-1.3988 13.2918-3.1521 12.9372-5.2571L474.4222 470.1379zM501.9766 459.9664c-2.6884-1.2959-5.4869-1.2685-8.3956.0803-.9825-.7229-2.2877-.8914-3.9152-.5074-8.211 6.6266-11.5693 14.3806-10.0755 23.2591 3.5782 15.9958 10.4889 23.5891 20.7338 22.781 11.5546-3.0806 16.6551-12.111 15.3003-27.0939C513.2363 467.2591 508.6869 461.086 501.9766 459.9664zM499.7907 496.22c-5.8042.3095-9.6082-4.0729-11.413-13.1512-1.0202-5.5726-.4398-9.8747 1.7426-12.9063 1.4468 1.8376 3.612 1.0158 6.4958-2.4675 5.4888-.5329 9.5891 3.6331 12.302 12.5018C509.4083 488.8852 506.3654 494.2256 499.7907 496.22zM570.6953 453.9442c-.3678-2.1853-1.7245-3.4842-4.069-3.8946-19.816 2.8054-30.1486 5.8899-30.9984 9.2527l.0955.5671c.3722 2.2128 1.7288 3.5116 4.0685 3.8946l10.4227-2.8788c2.7823 12.7447 4.7664 23.3031 5.9536 31.6801.7488 4.453 2.4802 6.8264 5.1935 7.1183 1.8626-.3125 2.9219-2.0169 3.1786-5.1132-1.9615-8.3564-3.9088-18.285-5.8429-29.7827l-.8444-5.0201c8.9794-1.3988 13.2913-3.1512 12.9377-5.2562L570.6953 453.9442zM642.6039 473.821c-3.158.5309-10.3561 2.8671-21.5934 7.0047l-1.7686-13.7321c13.2007-2.8593 19.1499-5.6921 17.8452-8.4974-.3713-1.7142-1.9204-2.5076-4.6464-2.3822-5.5961 1.052-10.5535 2.1912-14.8704 3.4176l-1.5535-9.4799c16.2505-4.2051 24.1421-7.6972 23.6744-10.4771-.0891-2.5105-1.8748-3.4734-5.3561-2.8877-4.0225.6768-10.218 2.2049-18.5876 4.5842-6.3787 1.1843-9.1841 4.0572-8.4172 8.617 1.0956 7.1712 2.2314 13.6743 3.4078 19.5143 1.1764 5.838 1.8572 9.3105 2.0433 10.4174 1.2861 5.5011 3.2207 8.423 5.8047 8.7649 2.8063-.4721 5.7058-1.2224 8.6953-2.2529 15.2426-4.0905 22.0582-7.7912 20.4473-11.1001C646.3364 473.9836 644.6281 473.4801 642.6039 473.821zM626.1057 628.0105l-16.8979-25.3866c-2.6987-3.1727-4.9427-4.1611-6.7363-2.968-1.9601 1.3057-2.2245 3.2922-.7925 5.9605l17.0082 25.5531c-.4648.0215-.9474.0837-1.461.2155-1.291.859-6.1603 5.1014-14.6078 12.7251-9.1577-12.2559-15.4561-20.9669-18.8923-26.1291-2.7525-4.1356-5.5481-5.743-8.3839-4.8212-1.721 1.1461-2.0129 3.3245-.8766 6.5344 5.9604 7.4514 10.77 13.9261 14.4305 19.4232 8.0028 12.0248 13.3795 17.1223 16.129 15.2915 1.9679-1.965 5.8547-5.3629 11.6603-10.1931 3.1487-2.6198 5.2405-4.8171 6.293-6.5996 2.7016 4.0516 5.1499 5.3468 7.346 3.8853 1.9601-1.3047 2.3803-3.395 1.2597-6.2709C629.1412 632.2333 627.3154 629.8275 626.1057 628.0105zM644.8686 601.2398c.9835-4.7938.6201-8.76-1.0902-11.8994-4.0788-9.187-12.9827-9.6063-26.7109-1.2616l-4.2668 2.8397c-3.7781 2.5145-4.4089 5.6597-1.8954 9.4368 3.7399 5.6166 10.6544 15.3317 20.7416 29.1412 1.3371 1.8004 2.5468 3.2549 3.6292 4.3629 1.8934 2.8445 6.2944 1.9669 13.2031-2.631 11.2127-9.1195 14.3688-17.3603 9.4682-24.7234C655.2262 602.4172 650.8663 600.6628 644.8686 601.2398zM625.7031 606.1835l-5.9908-9 5.3561-4.2374c5.1465-2.5282 8.666-2.3705 10.5604.4741 1.6045 4.3815.4957 7.8451-3.3294 10.3909l-1.9003 1.2646C628.0804 606.6194 626.5151 606.9887 625.7031 606.1835zM647.5545 621.5984c-2.438 1.6231-5.1671 2.9915-8.186 4.1042l-7.5424-11.3312c-.6612-.7327-.2988-1.199 1.0883-1.3969 9.8306-3.6801 15.653-4.1581 17.467-1.433C652.4492 614.6487 651.5079 618.0026 647.5545 621.5984zM671.2573 587.8662l-.3105-.4662c7.9078-9.1606 9.8404-16.7775 5.7998-22.8486-4.3922-6.5981-11.8475-7.277-22.3638-2.0364-3.9054 2.9445-5.7292 4.6077-5.4746 4.9897-5.6421 3.7556-6.3787 8.7649-2.2098 15.028 9.2841 14.6205 15.5893 24.4305 18.9149 29.4262 2.1481 3.2275 4.6518 4.2688 7.512 3.1237 1.8337-2.6349 1.199-6.2827-1.9032-10.9453l-5.2983-7.9597 1.434-.955c14.744 7.3308 23.3835 10.1519 25.9175 8.4651 1.2685-2.1883 1.481-3.9172.6367-5.1847C679.4932 592.4407 671.942 588.8947 671.2573 587.8662zM660.7929 587.3813l-7.1849-10.7935c-.8434-1.2665.9746-3.6154 5.4531-7.0448l.9315-.6201c4.4138-2.1794 7.3857-2.1207 8.9128.1734C671.5306 573.04 668.826 579.1366 660.7929 587.3813zM716.4187 567.7926c1.9542-3.543 2.4616-6.0192 1.5222-7.4297-1.6074-1.7935-4.2639-1.4566-7.9695 1.0089-1.147.764-5.1592-2.0502-12.0355-8.4426-9.431-9.9706-15.4973-14.0573-18.1988-12.2589-.622.4133-1.39 1.4095-2.3068 2.9856-.1773 2.4293 6.6393 19.1245 20.4517 50.0826 1.7827 2.8857 3.8241 3.4401 6.127 1.6652 2.6056-1.4233 2.107-5.3865-1.4957-11.8867-1.7661-2.6545.3389-5.9693 6.3151-9.9472l1.3018-.143c7.2819 7.5709 12.1306 10.5535 14.5451 8.9461 2.0159-1.6868 2.348-3.3392.9952-4.9564C724.9064 576.2695 721.8228 573.0615 716.4187 567.7926zM700.5513 569.7644l-2.9758 1.9807c-3.7458-7.0272-6.0555-11.9219-6.9302-14.6871l.5025-.334c6.0408 4.7752 9.8972 8.4171 11.5683 10.9277L700.5513 569.7644zM731.39 547.8405l-.3105-.4662c7.9078-9.1606 9.8404-16.7784 5.7999-22.8496-4.3923-6.5981-11.8465-7.2759-22.3638-2.0355-3.9044 2.9445-5.7293 4.6077-5.4746 4.9897-5.6422 3.7556-6.3777 8.7649-2.2089 15.028 9.283 14.6205 15.5883 24.4306 18.9138 29.4262 2.1481 3.2266 4.6518 4.2688 7.512 3.1237 1.8337-2.6349 1.2-6.2827-1.9032-10.9453l-5.2983-7.9597 1.4341-.9551c14.7449 7.3308 23.3844 10.1519 25.9185 8.4651 1.2675-2.1883 1.4801-3.9172.6367-5.1847C739.6259 552.4139 732.0746 548.869 731.39 547.8405zM720.9255 547.3556l-7.1849-10.7935c-.8434-1.2665.9747-3.6155 5.4531-7.0449l.9326-.621c4.4138-2.1785 7.3847-2.1207 8.9118.1743C731.6632 533.0142 728.9587 539.1099 720.9255 547.3556zM736.0995 511.2264l-1.9718 1.3126c-.7572 1.4017-.9178 2.924-.481 4.5637.5407.813 4.4059 3.4323 11.5947 7.8578 7.9774 4.211 13.8986 9.2213 17.7648 15.029l3.2462 4.8771c3.4774 4.7576 6.2563 6.4443 8.3358 5.0602 1.626-1.0814 1.8944-3.1414.8042-6.1769l-10.1088-13.0886c-2.7672-17.5797-4.7184-28.285-5.8547-32.117-1.3214-1.052-2.7868-1.4908-4.3952-1.3175l-1.9365 1.2891c-1.243.8277-.1734 8.9118 3.2079 24.2542C744.2208 514.1523 737.4856 510.3037 736.0995 511.2264zM333.9264 599.1891c50.1475 9.8588 100.3156 19.6135 150.5009 29.2798 3.563.6862 7.1266 1.3723 10.6902 2.0565 3.0902.5933 3.3711-3.1649.3484-3.7452-53.3158-10.2366-106.6064-20.6065-159.8762-31.0789C332.8577 595.1642 330.6902 598.5529 333.9264 599.1891zM217.1225 575.8948c2.7334.5569 4.8958-2.8297 1.6633-3.4881-20.522-4.1804-41.0432-8.3792-61.5003-12.8684-6.1975-1.3599-12.3963-2.73-18.5558-4.2549-1.8038-.4467-3.6135-.8896-5.3955-1.4178-.5916-.1754-1.2482-.4812-1.8559-.5816-.5801-.0958.1309-.0859.465.8669-.7916-2.2568-5.781-1.9417-4.9078.5478.7626 2.1746 4.5502 2.6453 6.4319 3.1522 5.9301 1.5971 11.9422 2.9097 17.9355 4.2436C173.2518 566.9571 195.19 571.4272 217.1225 575.8948zM211.4254 599.1891c2.7335.5598 4.8954-2.8264 1.6634-3.4879-24.4653-5.0084-49.2901-10.4274-72.6501-19.4568-2.6839-1.0373-4.7127 2.3095-1.6633 3.4882C162.1353 588.7618 186.9602 594.1808 211.4254 599.1891zM227.1926 601.7565c-2.1411-.5013-3.816 2.1405-1.3016 2.7289 78.6508 18.4094 157.8885 34.2852 237.5555 47.626 22.6297 3.7893 45.2939 7.3685 67.9868 10.758 2.4297.3629 2.6749-2.5715.2726-2.9305-79.5482-11.8813-158.728-26.2023-237.3645-43.1015C271.9125 612.0174 249.5298 606.9848 227.1926 601.7565zM381.3177 650.4171c-62.3951-9.0122-123.7287-24.2445-185.0002-38.8109-18.718-4.4498-37.4418-8.8758-56.195-13.176-1.6958-.3889-3.0246 1.7047-1.031 2.1616 63.9207 14.657 127.4665 31.1832 191.8771 43.6172 16.6462 3.2134 33.3531 6.1055 50.1333 8.5293C383.027 653.0163 383.2237 650.6926 381.3177 650.4171zM133.757 418.5057c31.4524 17.7078 62.9049 35.4153 94.3573 53.1231 7.1908 4.0484 14.3818 8.0968 21.5725 12.1453 2.0682 1.1644 6.1259-1.2876 3.4341-2.8029-19.7466-11.1172-39.4933-22.2347-59.2399-33.3522-31.4524-17.7075-62.9047-35.4153-94.3574-53.1229-7.1908-4.0486-14.3816-8.0971-21.5725-12.1455-2.068-1.1642-6.1258 1.2876-3.4341 2.8032C94.2638 396.271 114.0103 407.3884 133.757 418.5057zM256.1639 503.5959c-42.8665-24.2704-85.7329-48.5408-128.5993-72.8115-5.9625-3.3759-11.9251-6.7517-17.8878-10.1277-2.3405-1.3253-4.2224 3.2714-2.1395 4.4505 42.8664 24.2707 85.7328 48.5411 128.5992 72.8117 5.9627 3.3757 11.9252 6.7517 17.8878 10.1277C256.3649 509.3717 258.2468 504.7752 256.1639 503.5959zM176.6816 485.0474c-29.0387-16.1041-58.0773-32.2081-87.116-48.3121-4.1939-2.3257-8.388-4.6516-12.5819-6.9775-2.5396-1.4083-3.5741 3.3336-1.4989 4.4846 29.0386 16.104 58.0773 32.2081 87.1159 48.3121 4.194 2.3257 8.388 4.6516 12.5819 6.9774C177.7222 490.9403 178.7566 486.1981 176.6816 485.0474z" fill="#43aeff" class="color000 svgShape"></path></svg></g></svg>